<?xml version="1.0" encoding="UTF-8"?>
<svg id="Ebene_2" data-name="Ebene 2" xmlns="http://www.w3.org/2000/svg" viewBox="0 0 14.03 14.03">
  <defs>
    <style>
      .cls-1 {
        fill: #00f0c2;
      }
    </style>
  </defs>
  <g id="Ebene_3" data-name="Ebene 3">
    <path class="cls-1" d="M5.21,0c2.88,0,5.21,2.33,5.21,5.21,0,1.29-.47,2.48-1.25,3.39l.22.22h.63l4.01,4.01-1.2,1.2-4.01-4.01v-.63l-.22-.22c-.95.81-2.15,1.25-3.39,1.25-2.88,0-5.21-2.33-5.21-5.21S2.33,0,5.21,0M5.21,1.6c-2,0-3.61,1.6-3.61,3.61s1.6,3.61,3.61,3.61,3.61-1.6,3.61-3.61-1.6-3.61-3.61-3.61"/>
  </g>
</svg>