<?xml version="1.0" encoding="UTF-8"?>
<svg id="Ebene_2" data-name="Ebene 2" xmlns="http://www.w3.org/2000/svg" viewBox="0 0 13.02 14.4">
  <defs>
    <style>
      .cls-1 {
        fill: #00f0c2;
      }
    </style>
  </defs>
  <g id="Ebene_3" data-name="Ebene 3">
    <path class="cls-1" d="M10.85,10.18c-.55,0-1.04.22-1.42.56l-5.16-3c.04-.17.07-.33.07-.51s-.03-.34-.07-.51l5.1-2.97c.39.36.9.59,1.48.59,1.2,0,2.17-.97,2.17-2.17s-.97-2.17-2.17-2.17-2.17.97-2.17,2.17c0,.17.03.34.07.51l-5.1,2.97c-.39-.36-.9-.59-1.48-.59-1.2,0-2.17.97-2.17,2.17s.97,2.17,2.17,2.17c.57,0,1.08-.22,1.48-.59l5.15,3c-.04.15-.06.31-.06.48,0,1.16.95,2.1,2.11,2.1s2.11-.94,2.11-2.1-.95-2.11-2.11-2.11"/>
  </g>
</svg>